<svg xmlns="http://www.w3.org/2000/svg" version="1.1" xmlns:xlink="http://www.w3.org/1999/xlink" xmlns:svgjs="http://svgjs.dev/svgjs" width="2000" height="1247" viewBox="0 0 2000 1247"><g transform="matrix(1,0,0,1,-1.2121212121212466,0.504858299595071)"><svg viewBox="0 0 396 247" data-background-color="#729343" preserveAspectRatio="xMidYMid meet" height="1247" width="2000" xmlns="http://www.w3.org/2000/svg" xmlns:xlink="http://www.w3.org/1999/xlink"><g id="tight-bounds" transform="matrix(1,0,0,1,0.2400000000000091,-0.09999999999999432)"><svg viewBox="0 0 395.52 247.2" height="247.2" width="395.52"><g><svg></svg></g><g><svg viewBox="0 0 395.52 247.2" height="247.2" width="395.52"><mask id="f56132c9-ffaf-41b3-8760-04fbacae768b"><rect width="640" height="400" fill="white"></rect><g transform="matrix(1,0,0,1,67.09296529968455,37.08)"><svg viewBox="0 0 261.3340694006309 173.04" height="173.04" width="261.3340694006309"><g><svg viewBox="0 0 261.3340694006309 173.04" height="173.04" width="261.3340694006309"><g><svg viewBox="0 0 261.3340694006309 173.04" height="173.04" width="261.3340694006309"><g><svg viewBox="0 0 261.3340694006309 173.04" height="173.04" width="261.3340694006309"><g id="SvgjsG1847"><svg viewBox="0 0 261.3340694006309 173.04" height="173.04" width="261.3340694006309" id="SvgjsSvg1846"><g><svg viewBox="0 0 261.3340694006309 173.04" height="173.04" width="261.3340694006309"><g transform="matrix(1,0,0,1,0,0)"><svg width="261.3340694006309" viewBox="-7.75 -39.7 96.74 64.4" height="173.04" data-palette-color="#096a2e"><path d="M-0.45 1.9L-2.05 3.4Q-3.2 3.4-3.6 2.65L-3.6 2.65Q-3.75 2.4-3.75 2.25-3.75 2.1-3.65 2L-3.65 2Q0.9-1.35 7.15-8.5L7.15-8.5Q4.05-10.2 2.35-12.58 0.65-14.95 0.65-16.98 0.65-19 1.9-20.15 3.15-21.3 5.55-21.3L5.55-21.3Q10.1-21.3 13.3-16.05L13.3-16.05Q14.7-17.8 17.78-21.75 20.85-25.7 22.25-27.43 23.65-29.15 25.7-31.5L25.7-31.5Q29.5-35.7 31.45-35.7L31.45-35.7Q32.95-35.65 32.95-34.1L32.95-34.1Q32.95-32.45 31.83-29.58 30.7-26.7 30.03-25.03 29.35-23.35 28.03-20.58 26.7-17.8 25.95-16.18 25.2-14.55 23.65-11.38 22.1-8.2 21.5-6.95L21.5-6.95Q25.35-7.2 27.6-8.3L27.6-8.3Q28-8.5 28.1-8.75 28.2-9 28.38-9 28.55-9 28.73-8.8 28.9-8.6 28.9-8.4L28.9-8.4Q28.9-6.7 21.1-6.05L21.1-6.05Q19.15-2 18.4-0.2L18.4-0.2Q18.2 0.2 17.8 0.2L17.8 0.2Q16.75 0.2 16.75-1.8L16.75-1.8Q16.55-3.35 16.05-6.05L16.05-6.05Q12.1-6.35 8.65-7.8L8.65-7.8 8.65-7.75Q6.5-5.1 3.83-2.33 1.15 0.45-0.45 1.9L-0.45 1.9ZM19.65-6.9L19.65-6.9Q31.1-30.7 31.1-33.45L31.1-33.45Q31.1-34.3 30.5-34.3L30.5-34.3Q29.6-34.3 27.98-32.5 26.35-30.7 25.35-29.5 24.35-28.3 22.7-26.18 21.05-24.05 19.98-22.65 18.9-21.25 16.95-18.63 15-16 14.05-14.75L14.05-14.75Q15.6-11.85 16.85-7.1L16.85-7.1Q18.05-6.9 19.65-6.9ZM12.75-15.3L12.75-15.3Q9.8-20.4 5.75-20.4L5.75-20.4Q3.95-20.4 3.05-19.65 2.15-18.9 2.15-17.43 2.15-15.95 3.83-13.78 5.5-11.6 8.35-9.95L8.35-9.95Q9.85-11.7 12.75-15.3ZM13.45-13.95L13.45-13.95Q11.85-11.8 9.75-9.15L9.75-9.15Q12.7-7.75 15.75-7.25L15.75-7.25Q14.7-11.45 13.45-13.95ZM19.2-5.95L19.2-5.95 17.1-5.95 17.7-2.8Q18.3-4 19.2-5.95ZM37.4-9.35Q37.4-9.3 36.27-7.58 35.15-5.85 34.52-4.95 33.9-4.05 29.3 3.45L29.3 3.45Q29.7 3.4 30.6 3.4L30.6 3.4Q33 3.4 33 4.65L33 4.65Q33 5.35 32.1 6.3 31.2 7.25 30.7 7.25 30.2 7.25 30.2 6.9L30.2 6.9Q30.2 6.7 30.75 6.28 31.3 5.85 31.3 5.28 31.3 4.7 30.32 4.7 29.35 4.7 28.45 4.85L28.45 4.85Q23.9 12.3 20.6 16.5 17.3 20.7 14.95 20.7L14.95 20.7Q13.25 20.7 13.25 18.95L13.25 18.95Q13.25 15.95 17.77 10.63 22.3 5.3 27.6 3.8L27.6 3.8 32.4-4.5Q30.3-2.6 28.07-1.15 25.85 0.3 24.7 0.3 23.55 0.3 23.55-0.75L23.55-0.75Q23.55-2.35 28.8-9.6L28.8-9.6Q29.05-10 29.45-10L29.45-10Q30.6-9.65 30.6-9.5 30.6-9.35 30.3-8.9L30.3-8.9Q25.8-2.8 25.8-1.85L25.8-1.85Q25.8-1.25 26.47-1.25 27.15-1.25 29.27-2.85 31.4-4.45 32.9-6.1L32.9-6.1 35.7-9.5Q36-9.85 36.45-9.85L36.45-9.85Q37.4-9.7 37.4-9.35L37.4-9.35ZM18.1 11.68Q16.65 13.65 15.8 15.43 14.95 17.2 14.95 18.23 14.95 19.25 15.75 19.25L15.75 19.25Q18.25 19.25 26.7 5.25L26.7 5.25Q24.2 6.05 21.87 7.88 19.55 9.7 18.1 11.68ZM48.09-3.5L48.09-3.5Q46.55-2.55 44.49-2.55L44.49-2.55 43.89-2.55Q42.55-1 41.02-0.03 39.49 0.95 38.39 0.95L38.39 0.95Q36.84 0.95 36.84-1.05 36.84-3.05 38.99-5.7L38.99-5.7Q38.8-6.25 38.8-7.05L38.8-7.05Q38.8-8.8 40.32-10.08 41.84-11.35 43.3-11.35L43.3-11.35Q46.34-11.35 46.34-8.05L46.34-8.05Q46.34-5.85 44.45-3.25L44.45-3.25 45.05-3.25Q46.64-3.25 47.8-4L47.8-4Q47.95-4.15 48.2-4.15 48.45-4.15 48.45-3.98 48.45-3.8 48.09-3.5ZM43.3-9.25L43.3-9.25Q43.55-9.35 43.7-9.35 43.84-9.35 43.84-9.13 43.84-8.9 43.3-8.5L43.3-8.5Q41.3-6.95 40.3-5.7L40.3-5.7Q41.39-3.95 43.64-3.4L43.64-3.4Q45.59-5.7 45.59-7.7L45.59-7.7Q45.59-8.85 44.84-9.45 44.09-10.05 42.92-10.05 41.74-10.05 40.74-9.38 39.74-8.7 39.74-7.93 39.74-7.15 39.89-6.7L39.89-6.7Q41.45-8.3 43.3-9.25ZM39.59-4.6L39.59-4.6Q38.8-3.25 38.8-1.6L38.8-1.6Q38.8-0.7 39.59-0.7L39.59-0.7Q40.95-0.7 42.95-2.7L42.95-2.7Q40.7-3.1 39.59-4.6ZM53.69-0.5L53.69-0.5Q53.69-1.05 54.52-2.35 55.34-3.65 55.62-4 55.89-4.35 56.44-5.1L56.44-5.1Q50.49 0.3 48.24 0.3L48.24 0.3Q46.99 0.3 46.99-0.75L46.99-0.75Q46.99-2.25 52.04-9.2L52.04-9.2Q52.29-9.6 52.69-9.6L52.69-9.6Q53.84-9.25 53.84-9.1 53.84-8.95 53.54-8.5L53.54-8.5Q49.24-2.7 49.24-1.98 49.24-1.25 49.74-1.25L49.74-1.25Q51.14-1.25 54.72-4.48 58.29-7.7 59.89-9.8L59.89-9.8Q60.09-10.15 60.54-10.15L60.54-10.15Q61.54-9.95 61.54-9.75L61.54-9.75Q60.99-8.95 60.04-7.65 59.09-6.35 58.49-5.53 57.89-4.7 57.24-3.75L57.24-3.75Q55.99-2.05 55.74-1.25L55.74-1.25Q55.74-0.75 56.57-0.75 57.39-0.75 59.49-1.73 61.59-2.7 63.19-3.7L63.19-3.7 64.79-4.7Q64.84-4.6 64.84-4.3 64.84-4 64.39-3.8L64.39-3.8Q57.64 0.8 54.99 0.8L54.99 0.8Q53.69 0.8 53.69-0.5ZM76.64-7.8L76.64-7.8Q76.79-7.95 77.04-7.95 77.29-7.95 77.29-7.78 77.29-7.6 76.94-7.3L76.94-7.3Q74.69-5.8 71.19-5.25L71.19-5.25Q70.89-2.8 69.17-0.85 67.44 1.1 65.39 1.1L65.39 1.1Q63.69 1.1 63.69-1.3L63.69-1.3Q63.69-2.5 65.14-5.5L65.14-5.5Q62.39-6.4 62.39-8.85L62.39-8.85Q62.39-9.8 63.29-10.43 64.19-11.05 65.56-11.05 66.94-11.05 68.04-10.65L68.04-10.65Q72.09-17.2 76.79-22.48 81.49-27.75 84.04-27.75L84.04-27.75Q84.99-27.75 84.99-26.4L84.99-26.4Q84.99-24 80.52-18.68 76.04-13.35 70.69-8.4L70.69-8.4Q71.24-7.4 71.24-6.15L71.24-6.15 71.24-6Q74.74-6.5 76.64-7.8ZM70.24-9.1L70.24-9.1Q75.04-13.6 78.99-18.23 82.94-22.85 83.19-25.2L83.19-25.2Q83.14-26.3 82.54-26.3L82.54-26.3Q81.19-26.3 76.87-21.03 72.54-15.75 69.19-10.05L69.19-10.05Q69.69-9.75 70.24-9.1ZM70.14-5.1Q69.59-5.05 68.49-5.05 67.39-5.05 66.84-5.15L66.84-5.15Q66.64-4.95 66.54-4.9L66.54-4.9Q65.59-2.6 65.59-1.8L65.59-1.8Q65.59-0.55 66.49-0.55L66.49-0.55Q67.84-0.55 68.94-1.93 70.04-3.3 70.14-5.1L70.14-5.1ZM67.39-9.55L67.39-9.55Q66.24-10.15 65.24-10.15L65.24-10.15Q63.64-10.15 63.64-9.1L63.64-9.1Q63.64-7.1 65.59-6.3L65.59-6.3Q66.39-7.95 67.39-9.55ZM67.69-5.85L67.69-5.85Q68.04-5.8 68.84-5.8 69.64-5.8 70.09-5.85L70.09-5.85Q69.99-6.75 69.59-7.45L69.59-7.45Q68.59-6.5 67.69-5.85ZM69.14-8.1L69.14-8.1 68.49-8.8Q68.44-8.65 67.94-7.78 67.44-6.9 67.24-6.45L67.24-6.45Q67.89-6.95 69.14-8.1Z" opacity="1" transform="matrix(1,0,0,1,0,0)" fill="black" class="wordmark-text-0" id="SvgjsPath1845" stroke-width="7" stroke="black" stroke-linejoin="round"></path></svg></g></svg></g></svg></g></svg></g><g></g></svg></g></svg></g></svg></g></mask><g transform="matrix(1,0,0,1,67.09296529968455,37.08)"><svg viewBox="0 0 261.3340694006309 173.04" height="173.04" width="261.3340694006309"><g><svg viewBox="0 0 261.3340694006309 173.04" height="173.04" width="261.3340694006309"><g><svg viewBox="0 0 261.3340694006309 173.04" height="173.04" width="261.3340694006309"><g><svg viewBox="0 0 261.3340694006309 173.04" height="173.04" width="261.3340694006309"><g id="textblocktransform"><svg viewBox="0 0 261.3340694006309 173.04" height="173.04" width="261.3340694006309" id="textblock"><g><svg viewBox="0 0 261.3340694006309 173.04" height="173.04" width="261.3340694006309"><g transform="matrix(1,0,0,1,0,0)"><svg width="261.3340694006309" viewBox="-7.75 -39.7 96.74 64.4" height="173.04" data-palette-color="#096a2e"><path d="M-0.45 1.9L-2.05 3.4Q-3.2 3.4-3.6 2.65L-3.6 2.65Q-3.75 2.4-3.75 2.25-3.75 2.1-3.65 2L-3.65 2Q0.9-1.35 7.15-8.5L7.15-8.5Q4.05-10.2 2.35-12.58 0.65-14.95 0.65-16.98 0.65-19 1.9-20.15 3.15-21.3 5.55-21.3L5.55-21.3Q10.1-21.3 13.3-16.05L13.3-16.05Q14.7-17.8 17.78-21.75 20.85-25.7 22.25-27.43 23.65-29.15 25.7-31.5L25.7-31.5Q29.5-35.7 31.45-35.7L31.45-35.7Q32.95-35.65 32.95-34.1L32.95-34.1Q32.95-32.45 31.83-29.58 30.7-26.7 30.03-25.03 29.35-23.35 28.03-20.58 26.7-17.8 25.95-16.18 25.2-14.55 23.65-11.38 22.1-8.2 21.5-6.95L21.5-6.95Q25.35-7.2 27.6-8.3L27.6-8.3Q28-8.5 28.1-8.75 28.2-9 28.38-9 28.55-9 28.73-8.8 28.9-8.6 28.9-8.4L28.9-8.4Q28.9-6.7 21.1-6.05L21.1-6.05Q19.15-2 18.4-0.2L18.4-0.2Q18.2 0.2 17.8 0.2L17.8 0.2Q16.75 0.2 16.75-1.8L16.75-1.8Q16.55-3.35 16.05-6.05L16.05-6.05Q12.1-6.35 8.65-7.8L8.65-7.8 8.65-7.75Q6.5-5.1 3.83-2.33 1.15 0.45-0.45 1.9L-0.45 1.9ZM19.65-6.9L19.65-6.9Q31.1-30.7 31.1-33.45L31.1-33.45Q31.1-34.3 30.5-34.3L30.5-34.3Q29.6-34.3 27.98-32.5 26.35-30.7 25.35-29.5 24.35-28.3 22.7-26.18 21.05-24.05 19.98-22.65 18.9-21.25 16.95-18.63 15-16 14.05-14.75L14.05-14.75Q15.6-11.85 16.85-7.1L16.85-7.1Q18.05-6.9 19.65-6.9ZM12.75-15.3L12.75-15.3Q9.8-20.4 5.75-20.4L5.75-20.4Q3.95-20.4 3.05-19.65 2.15-18.9 2.15-17.43 2.15-15.95 3.83-13.78 5.5-11.6 8.35-9.95L8.35-9.95Q9.85-11.7 12.75-15.3ZM13.45-13.95L13.45-13.95Q11.85-11.8 9.75-9.15L9.75-9.15Q12.7-7.75 15.75-7.25L15.75-7.25Q14.7-11.45 13.45-13.95ZM19.2-5.95L19.2-5.95 17.1-5.95 17.7-2.8Q18.3-4 19.2-5.95ZM37.4-9.35Q37.4-9.3 36.27-7.58 35.15-5.85 34.52-4.95 33.9-4.05 29.3 3.45L29.3 3.45Q29.7 3.4 30.6 3.4L30.6 3.4Q33 3.4 33 4.65L33 4.65Q33 5.35 32.1 6.3 31.2 7.25 30.7 7.25 30.2 7.25 30.2 6.9L30.2 6.9Q30.2 6.7 30.75 6.28 31.3 5.85 31.3 5.28 31.3 4.7 30.32 4.7 29.35 4.7 28.45 4.85L28.45 4.85Q23.9 12.3 20.6 16.5 17.3 20.7 14.95 20.7L14.95 20.7Q13.25 20.7 13.25 18.95L13.25 18.95Q13.25 15.95 17.77 10.63 22.3 5.3 27.6 3.8L27.6 3.8 32.4-4.5Q30.3-2.6 28.07-1.15 25.85 0.3 24.7 0.3 23.55 0.3 23.55-0.75L23.55-0.75Q23.55-2.35 28.8-9.6L28.8-9.6Q29.05-10 29.45-10L29.45-10Q30.6-9.65 30.6-9.5 30.6-9.35 30.3-8.9L30.3-8.9Q25.8-2.8 25.8-1.85L25.8-1.85Q25.8-1.25 26.47-1.25 27.15-1.25 29.27-2.85 31.4-4.45 32.9-6.1L32.9-6.1 35.7-9.5Q36-9.85 36.45-9.85L36.45-9.85Q37.4-9.7 37.4-9.35L37.4-9.35ZM18.1 11.68Q16.65 13.65 15.8 15.43 14.95 17.2 14.95 18.23 14.95 19.25 15.75 19.25L15.75 19.25Q18.25 19.25 26.7 5.25L26.7 5.25Q24.2 6.05 21.87 7.88 19.55 9.7 18.1 11.68ZM48.09-3.5L48.09-3.5Q46.55-2.55 44.49-2.55L44.49-2.55 43.89-2.55Q42.55-1 41.02-0.03 39.49 0.95 38.39 0.95L38.39 0.95Q36.84 0.95 36.84-1.05 36.84-3.05 38.99-5.7L38.99-5.7Q38.8-6.25 38.8-7.05L38.8-7.05Q38.8-8.8 40.32-10.08 41.84-11.35 43.3-11.35L43.3-11.35Q46.34-11.35 46.34-8.05L46.34-8.05Q46.34-5.85 44.45-3.25L44.45-3.25 45.05-3.25Q46.64-3.25 47.8-4L47.8-4Q47.95-4.15 48.2-4.15 48.45-4.15 48.45-3.98 48.45-3.8 48.09-3.5ZM43.3-9.25L43.3-9.25Q43.55-9.35 43.7-9.35 43.84-9.35 43.84-9.13 43.84-8.9 43.3-8.5L43.3-8.5Q41.3-6.95 40.3-5.7L40.3-5.7Q41.39-3.95 43.64-3.4L43.64-3.4Q45.59-5.7 45.59-7.7L45.59-7.7Q45.59-8.85 44.84-9.45 44.09-10.05 42.92-10.05 41.74-10.05 40.74-9.38 39.74-8.7 39.74-7.93 39.74-7.15 39.89-6.7L39.89-6.7Q41.45-8.3 43.3-9.25ZM39.59-4.6L39.59-4.6Q38.8-3.25 38.8-1.6L38.8-1.6Q38.8-0.7 39.59-0.7L39.59-0.7Q40.95-0.7 42.95-2.7L42.95-2.7Q40.7-3.1 39.59-4.6ZM53.69-0.5L53.69-0.5Q53.69-1.05 54.52-2.35 55.34-3.65 55.62-4 55.89-4.35 56.44-5.1L56.44-5.1Q50.49 0.3 48.24 0.3L48.24 0.3Q46.99 0.3 46.99-0.75L46.99-0.75Q46.99-2.25 52.04-9.2L52.04-9.2Q52.29-9.6 52.69-9.6L52.69-9.6Q53.84-9.25 53.84-9.1 53.84-8.95 53.54-8.5L53.54-8.5Q49.24-2.7 49.24-1.98 49.24-1.25 49.74-1.25L49.74-1.25Q51.14-1.25 54.72-4.48 58.29-7.7 59.89-9.8L59.89-9.8Q60.09-10.15 60.54-10.15L60.54-10.15Q61.54-9.95 61.54-9.75L61.54-9.75Q60.99-8.95 60.04-7.65 59.09-6.35 58.49-5.53 57.89-4.7 57.24-3.75L57.24-3.75Q55.99-2.05 55.74-1.25L55.74-1.25Q55.74-0.75 56.57-0.75 57.39-0.75 59.49-1.73 61.59-2.7 63.19-3.7L63.19-3.7 64.79-4.7Q64.84-4.6 64.84-4.3 64.84-4 64.39-3.8L64.39-3.8Q57.64 0.8 54.99 0.8L54.99 0.8Q53.69 0.8 53.69-0.5ZM76.64-7.8L76.64-7.8Q76.79-7.95 77.04-7.95 77.29-7.95 77.29-7.78 77.29-7.6 76.94-7.3L76.94-7.3Q74.69-5.8 71.19-5.25L71.19-5.25Q70.89-2.8 69.17-0.85 67.44 1.1 65.39 1.1L65.39 1.1Q63.69 1.1 63.69-1.3L63.69-1.3Q63.69-2.5 65.14-5.5L65.14-5.5Q62.39-6.4 62.39-8.85L62.39-8.85Q62.39-9.8 63.29-10.43 64.19-11.05 65.56-11.05 66.94-11.05 68.04-10.65L68.04-10.65Q72.09-17.2 76.79-22.48 81.49-27.75 84.04-27.75L84.04-27.75Q84.99-27.75 84.99-26.4L84.99-26.4Q84.99-24 80.52-18.68 76.04-13.35 70.69-8.4L70.69-8.4Q71.24-7.4 71.24-6.15L71.24-6.15 71.24-6Q74.74-6.5 76.64-7.8ZM70.24-9.1L70.24-9.1Q75.04-13.6 78.99-18.23 82.94-22.85 83.19-25.2L83.19-25.2Q83.14-26.3 82.54-26.3L82.54-26.3Q81.19-26.3 76.87-21.03 72.54-15.75 69.19-10.05L69.19-10.05Q69.69-9.75 70.24-9.1ZM70.14-5.1Q69.59-5.05 68.49-5.05 67.39-5.05 66.84-5.15L66.84-5.15Q66.64-4.95 66.54-4.9L66.54-4.9Q65.59-2.6 65.59-1.8L65.59-1.8Q65.59-0.55 66.49-0.55L66.49-0.55Q67.84-0.55 68.94-1.93 70.04-3.3 70.14-5.1L70.14-5.1ZM67.39-9.55L67.39-9.55Q66.24-10.15 65.24-10.15L65.24-10.15Q63.64-10.15 63.64-9.1L63.64-9.1Q63.64-7.1 65.59-6.3L65.59-6.3Q66.39-7.95 67.39-9.55ZM67.69-5.85L67.69-5.85Q68.04-5.8 68.84-5.8 69.64-5.8 70.09-5.85L70.09-5.85Q69.99-6.75 69.59-7.45L69.59-7.45Q68.59-6.5 67.69-5.85ZM69.14-8.1L69.14-8.1 68.49-8.8Q68.44-8.65 67.94-7.78 67.44-6.9 67.24-6.45L67.24-6.45Q67.89-6.95 69.14-8.1Z" opacity="1" transform="matrix(1,0,0,1,0,0)" fill="#096a2e" class="wordmark-text-0" data-fill-palette-color="primary" id="text-0"></path></svg></g></svg></g></svg></g></svg></g><g></g></svg></g></svg></g></svg></g><g mask="url(#f56132c9-ffaf-41b3-8760-04fbacae768b)"><g transform="matrix(3.60807122244139, 0, 0, 3.60807122244139, 133.58509252024248, 1.0000000000000142)"><svg xmlns="http://www.w3.org/2000/svg" xmlns:xlink="http://www.w3.org/1999/xlink" version="1.1" x="0" y="0" viewBox="19.682354658322133 3.5 35.57297155366782 67.95874717630606" enable-background="new 0 0 75 75" xml:space="preserve" height="67.95874717630606" width="35.57297155366782" class="icon-none" data-fill-palette-color="accent" id="none"><path d="M21.2 59.5c-1.1-2.6-4.2-12.2 3.8-24.7C36 18 31.7 3.5 31.7 3.5S46 8.8 41.7 37.5c-1 6.5-0.9 9 2 9.4 5 0.7 3.1-19.7 3.1-19.7s3.9 2 6.8 12.1c1.5 5.3 1.8 9.5 1.6 12.5-1 18.1-16.5 19.6-16.5 19.6S26.9 73 21.2 59.5z" fill="#8abe53" data-fill-palette-color="accent"></path></svg></g></g></svg></g><defs></defs></svg><rect width="395.52" height="247.2" fill="none" stroke="none" visibility="hidden"></rect></g></svg></g></svg>